Genre:Action | Comedy | Crime
Language:Cantonese
IMDb:http://www.imdb.com/title/tt1611840/
Source:DVD
Subtitles:English
Encoder: Tony2
..............................................
General
Complete name : Once.A.Gangster.2010.DVDRip.Xvid-FEEL-FREE
Format : AVI
Format/Info : Audio Video Interleave
File size : 913 MiB
Duration : 1h 35mn
Overall bit rate : 1 339 Kbps
...............................................
Video
Format : xvid
Codec ID : xvid
Duration : 1h 35mn
Bit rate : 1 199 Kbps
Width : 652 pixels
Height : 352 pixels
Display aspect ratio : 1.852
Frame rate : 23.976 fps
Resolution : 24 bits
Bits/(Pixel*Frame) : 0.218
Stream size : 817 MiB (89%)
.................................................
Audio
ID : 1
Format : MPEG Audio
Format version : Version 1
Format profile : Layer 3
Format settings, Mode : Joint stereo / MS Stereo
Codec ID : 55
Codec ID/Hint : MP3
Duration : 1h 35mn
Bit rate mode : Constant
Bit rate : 128 Kbps
Channel(s) : 2 channels
Sampling rate : 48.0 KHz
Resolution : 16 bits
Stream size : 87.2 MiB (10%)
Alignment : Aligned on interleaves
Interleave, duration : 24 ms (0.58 video frame)
Interleave, preload duration : 24 ms
Writing library : LAME3.97
.................................................